<svg xmlns="http://www.w3.org/2000/svg" viewBox="0 0 2466.5 664.74"><defs><style>.cls-1{fill:#37bcb5;}.cls-2{fill:#303030;}</style></defs><g id="Layer_2" data-name="Layer 2"><g id="Layer_1-2" data-name="Layer 1"><path class="cls-1" d="M558.41,93.29c-17.27,18.33-34.15,36.26-51,54.15a16.62,16.62,0,0,1-2.85,1.82C452,100.44,389.74,76.33,317.86,80.2c-49.45,2.66-94.44,19.16-134.61,48.63C95.32,193.34,60.8,306,90,402.64c31.3,103.77,119.29,167.38,202,178.85.05-6.72.54-13.33,0-19.87-.58-7.57,1.9-13,7.28-18.58,21.44-22.12,42.33-44.77,63.36-67.28a61.37,61.37,0,0,0,4.76-6.45c2.05.82,2.32.89,2.55,1s.58.37.58.56q.23,92.43.37,184.87c0,1.72-.31,3.44-.59,6.38-6.91.73-13.77,1.76-20.67,2.12A324.75,324.75,0,0,1,228.3,647.9c-39.7-13.29-75.93-32.8-107.79-59.89C68.45,543.75,32.07,489.2,13,423.18.27,379.07-3.27,334.5,3.08,289.09A329.94,329.94,0,0,1,54.54,151.88a333.8,333.8,0,0,1,83.38-87.32c44.5-32.4,93.63-52.78,148.1-61,61.23-9.26,119.86,0,176.35,23.91,35.16,14.9,66.14,36.56,93.81,62.89A29.46,29.46,0,0,1,558.41,93.29Z"/><path class="cls-1" d="M289.05,523.91l-140.39-146,54.7-54.19c14.38,12.15,27.48,27.93,42.07,42.15s28.76,29.24,43.95,44.76c108.5-113.09,213-229.24,321.26-343.38l55,53.65Z"/><path class="cls-1" d="M292.12,375.45V259.85h-124c-.44-25.87-.11-50.9-.24-77.25,102.07-.09,203.3-.34,306,0a42.41,42.41,0,0,1-3,4.5c-21,22.51-42.12,44.92-63,67.58-3.32,3.6-6.66,5.14-11.42,5-8.14-.25-16.3-.07-25.58-.07-.14,8.29-.65,15.83-.28,23.32.44,8.84-2.72,15.33-9,21.74-21.26,21.84-41.88,44.32-62.7,66.6a52.82,52.82,0,0,0-4.07,5.66Z"/><path class="cls-1" d="M628,189.15C727.45,383.72,602,621,393.25,658.32c-2-6.18-2.67-57.77-1-80.26l7.91-2.47C480.81,550.52,536,498.16,566.79,419.83a235.28,235.28,0,0,0,15.76-102.65c-1.32-19.93-4.31-39.65-11.12-58.57-1.29-3.6-1.59-6.38,1.43-9.52,16.66-17.34,33.13-34.87,49.59-52.39C624.24,194.79,625.58,192.47,628,189.15Zm20.72,140.23c-.23-4.95-.24-14.66-1.29-24.26a137.55,137.55,0,0,0-4.75-24.95c-3-9.79-10.27-15.54-20.59-16.74-9.85-1.15-17.89,2.48-23.77,10.4-4.8,6.48-5.85,13.88-4.47,21.76,4,23,3.93,46.06,1,69.19a263.71,263.71,0,0,1-49.57,124.44c-27.3,37.32-61.56,66.63-104.21,85.51a58.09,58.09,0,0,0-11.44,6.49c-8.53,6.41-11.7,15.31-9.63,25.63,3.47,17.31,19.46,25.19,36.58,17.82a298.15,298.15,0,0,0,54.57-30.09C549.51,567.44,581,534,604.51,493.15,632.89,443.88,648.75,391.23,648.71,329.38Z"/><path class="cls-1" d="M604.18,378.22,634,382.11c-1.63,8.26-2.62,15.44-4.49,22.38C606.58,489.41,558.33,555.29,482,599.9c-8.83,5.17-18.27,9.32-27.54,13.71a26.85,26.85,0,0,1-8.41,2.28c-6.58.73-11.91-2.35-14.41-7.83-2.72-5.95-1.88-12.78,2.93-17A43,43,0,0,1,445,584.68C515,552.13,562.88,499,590.57,427.49c5.15-13.3,7.78-27.58,11.57-41.42C602.74,383.85,603.3,381.62,604.18,378.22Z"/><path class="cls-2" d="M2031.07,312.74V265.3h39.36c.34-8.67.48-15.4.89-22.11,1.33-21.7,6.64-41.88,21.49-58.74,10.85-12.32,24-20.7,40-24,26.8-5.45,53-4.09,79.53,9-4.62,15.23-9.12,30.07-13.88,45.78-19.45-8.38-38.28-15.67-56.47-.37-11.55,9.71-14.92,26.68-10.16,49.46,19.36,0,39,.18,58.7-.05,17.81-.21,35.64-.49,53.41-1.51,9.09-.53,12.84,3.3,16.07,11.42,21.76,54.69,44.1,109.15,66.27,163.68,1.47,3.63,3.16,7.18,5.6,12.68,12.09-20.48,17.65-42,26.42-62.07,8.91-20.38,16.52-41.32,24.73-62s16.45-41.32,25-62.73h58.45c-1.88,5.61-3.21,10.57-5.16,15.28q-42.78,103.55-85.73,207-15.09,36.32-30.8,72.35a151.7,151.7,0,0,1-9.88,18.25c-35.77,58.71-104.29,51.94-141.09,23.79-.72-.55-1-1.64-2.2-3.57q9.95-20.16,20.83-42.19c5.77,3.17,10.75,6.3,16.05,8.77,40.5,18.85,61.91-4.82,71.07-37.07,1.41-4.94-1.35-11.63-3.55-16.95-15.08-36.59-30.54-73-45.87-109.52q-24.4-58.14-48.81-116.27a10.14,10.14,0,0,0-5.31-5.65v34.38h-65c-1.11,18.35-.39,35.47-.56,52.52-.17,17.82,0,35.65,0,53.47,0,17.33,0,34.66-.06,52s0,34.47,0,52.86h-58.38V313.7Z"/><path class="cls-2" d="M1704.51,162.22v212l3,1.46c5.27-4.81,10.73-9.42,15.77-14.46,30.1-30.08,60.25-60.13,90-90.55,5.29-5.39,10.41-8,18-7.81,18.66.51,37.34.17,59.9.17-11.77,15.71-24.49,25.67-35.2,37.35s-22,22.81-32.89,34.25c-11.26,11.77-22.44,23.62-34.59,36.43l112.75,151.82c-5.6.58-9.24,1.23-12.9,1.28-13.36.19-26.8-.69-40.06.49-12.91,1.16-20.88-3.7-28.34-14-20.85-28.87-42.77-57-64.31-85.33-3-3.91-6.23-7.59-10.69-13-13,13.16-25.59,25.45-37.43,38.46-2.55,2.81-3,8.23-3,12.47-.34,14.84,0,29.69-.12,44.54,0,4.87-.42,9.73-.69,15.61h-57.57V162.22h58.36Z"/><path class="cls-2" d="M1272.18,369.3c3.15-41.11-22.35-57.26-49.7-59.6-29.83-2.55-56.93,4.3-81.36,21.64-2,1.41-4.08,2.69-7.75,5.1-7.79-14-15.32-27.55-23.48-42.24a142.15,142.15,0,0,1,50.82-27.34,185.58,185.58,0,0,1,95.38-3.36c44.14,9.83,68.21,36.5,75.18,82.67a134.37,134.37,0,0,1,1.56,19.21q.47,74.25.6,148.5c0,2.86-.46,5.73-.79,9.53H1278.3c-.46-8.47-.91-16.54-1.46-26.57-3.77,3-6.13,4.47-8.06,6.4-14.66,14.7-32.8,21.66-53,24-23.54,2.79-46.55.63-68.28-9.21-39.11-17.7-51.25-51.8-44.42-89.17,4-22,18.88-36.61,38.35-46.34,18-9,37.49-12.57,57.47-13,19.3-.4,38.61-.22,57.91-.29C1261.65,369.28,1266.49,369.3,1272.18,369.3Zm-1.6,42.08c-24.53,0-48.24-.44-71.91.27-6.62.2-13.42,3.15-19.65,5.93-12.39,5.52-19.57,15.52-19.24,29.14.32,13.46,7.89,23.06,19.75,29.24,12.8,6.68,26.58,7.63,40.51,6.12C1258.62,477.87,1279.57,449.11,1270.58,411.38Z"/><path class="cls-2" d="M1377,494.7l20.85-42.93c5.53,2.88,10.24,5.22,14.84,7.74,29.25,16,60.59,21,93.35,16.77,7.61-1,15.34-4,22.13-7.74,7.89-4.32,11.71-12.08,10.53-21.34-1.15-8.95-5.31-16.27-14.57-18.73-15.26-4.07-30.7-7.49-46-11.27-15.82-3.9-32.07-6.62-47.33-12.08-63-22.58-54.71-93.56-21.11-119.81a114.15,114.15,0,0,1,56.64-23.93c37.06-4.89,73.07-1.89,107.33,14.23,3.13,1.48,6.19,3.12,9.17,4.88a70.38,70.38,0,0,1,6,4.58c-6.78,14.52-13.59,29.08-20.77,44.44-4.4-2.17-8.32-3.94-12.08-6-25.36-13.86-52.7-16.81-80.71-13.18a52.18,52.18,0,0,0-24.11,10.12c-13.85,10.73-11.8,29.31,4.29,35.92,14.5,5.95,30.2,9,45.48,12.95,16.27,4.16,33,6.69,48.95,11.87,58,18.9,60.88,85.05,23.77,119.46-14.8,13.73-32.36,20.76-51.63,24.22-48,8.62-93.51,1.34-136.22-22.45a51.58,51.58,0,0,1-6.12-4.17C1378.88,497.68,1378.46,496.69,1377,494.7Z"/><path class="cls-2" d="M927,234.21H819.8V184c9.89-3.23,252-4.57,277.63-1.34V234H989.37V523.26H927.51C926.71,427.4,927.68,331.69,927,234.21Z"/><path class="cls-2" d="M1991.24,523.51H1933V264.23h58.22Z"/><path class="cls-2" d="M1962.57,220.94c-21.79.21-37.14-14.28-37.27-35.2-.13-21.28,14.55-36.09,36.15-36.46,20.14-.36,37.18,14.88,37.78,33.77C1999.91,204.33,1984,220.73,1962.57,220.94Z"/></g></g></svg>