<svg xmlns="http://www.w3.org/2000/svg" viewBox="0 0 665.68 664.74"><defs><style>.cls-1{fill:#37bcb5;}</style></defs><g id="Layer_2" data-name="Layer 2"><g id="Layer_1-2" data-name="Layer 1"><path class="cls-1" d="M558.41,93.29c-17.27,18.33-34.15,36.26-51,54.15a16.62,16.62,0,0,1-2.85,1.82C452,100.44,389.74,76.33,317.86,80.2c-49.45,2.66-94.44,19.16-134.61,48.63C95.32,193.34,60.8,306,90,402.64c31.3,103.77,119.29,167.38,202,178.85.05-6.72.54-13.33,0-19.87-.58-7.57,1.9-13,7.28-18.58,21.44-22.12,42.33-44.77,63.36-67.28a61.37,61.37,0,0,0,4.76-6.45c2.05.82,2.32.89,2.55,1s.58.37.58.56q.23,92.43.37,184.87c0,1.72-.31,3.44-.59,6.38-6.91.73-13.77,1.76-20.67,2.12A324.75,324.75,0,0,1,228.3,647.9c-39.7-13.29-75.93-32.8-107.79-59.89C68.45,543.75,32.07,489.2,13,423.18.27,379.07-3.27,334.5,3.08,289.09A329.94,329.94,0,0,1,54.54,151.88a333.8,333.8,0,0,1,83.38-87.32c44.5-32.4,93.63-52.78,148.1-61,61.23-9.26,119.86,0,176.35,23.91,35.16,14.9,66.14,36.56,93.81,62.89A29.46,29.46,0,0,1,558.41,93.29Z"/><path class="cls-1" d="M289.05,523.91l-140.39-146,54.7-54.19c14.38,12.15,27.48,27.93,42.07,42.15s28.76,29.24,43.95,44.76c108.5-113.09,213-229.24,321.26-343.38l55,53.65Z"/><path class="cls-1" d="M292.12,375.45V259.85h-124c-.44-25.87-.11-50.9-.24-77.25,102.07-.09,203.3-.34,306,0a42.41,42.41,0,0,1-3,4.5c-21,22.51-42.12,44.92-63,67.58-3.32,3.6-6.66,5.14-11.42,5-8.14-.25-16.3-.07-25.58-.07-.14,8.29-.65,15.83-.28,23.32.44,8.84-2.72,15.33-9,21.74-21.26,21.84-41.88,44.32-62.7,66.6a52.82,52.82,0,0,0-4.07,5.66Z"/><path class="cls-1" d="M628,189.15C727.45,383.72,602,621,393.25,658.32c-2-6.18-2.67-57.77-1-80.26l7.91-2.47C480.81,550.52,536,498.16,566.79,419.83a235.28,235.28,0,0,0,15.76-102.65c-1.32-19.93-4.31-39.65-11.12-58.57-1.29-3.6-1.59-6.38,1.43-9.52,16.66-17.34,33.13-34.87,49.59-52.39C624.24,194.79,625.58,192.47,628,189.15Zm20.72,140.23c-.23-4.95-.24-14.66-1.29-24.26a137.55,137.55,0,0,0-4.75-24.95c-3-9.79-10.27-15.54-20.59-16.74-9.85-1.15-17.89,2.48-23.77,10.4-4.8,6.48-5.85,13.88-4.47,21.76,4,23,3.93,46.06,1,69.19a263.71,263.71,0,0,1-49.57,124.44c-27.3,37.32-61.56,66.63-104.21,85.51a58.09,58.09,0,0,0-11.44,6.49c-8.53,6.41-11.7,15.31-9.63,25.63,3.47,17.31,19.46,25.19,36.58,17.82a298.15,298.15,0,0,0,54.57-30.09C549.51,567.44,581,534,604.51,493.15,632.89,443.88,648.75,391.23,648.71,329.38Z"/><path class="cls-1" d="M604.18,378.22,634,382.11c-1.63,8.26-2.62,15.44-4.49,22.38C606.58,489.41,558.33,555.29,482,599.9c-8.83,5.17-18.27,9.32-27.54,13.71a26.85,26.85,0,0,1-8.41,2.28c-6.58.73-11.91-2.35-14.41-7.83-2.72-5.95-1.88-12.78,2.93-17A43,43,0,0,1,445,584.68C515,552.13,562.88,499,590.57,427.49c5.15-13.3,7.78-27.58,11.57-41.42C602.74,383.85,603.3,381.62,604.18,378.22Z"/></g></g></svg>